<?xml version="1.0" encoding="utf-8"?>
<svg xmlns="http://www.w3.org/2000/svg" xmlns:xlink="http://www.w3.org/1999/xlink" width="600" height="400" viewBox="0 0 2400 1600">
<defs>
  <clipPath id="clip140">
    <rect x="0" y="0" width="2400" height="1600"/>
  </clipPath>
</defs>
<path clip-path="url(#clip140)" d="
M0 1600 L2400 1600 L2400 0 L0 0  Z
  " fill="#ffffff" fill-rule="evenodd" fill-opacity="1"/>
<defs>
  <clipPath id="clip141">
    <rect x="480" y="0" width="1681" height="1600"/>
  </clipPath>
</defs>
<defs>
  <clipPath id="clip142">
    <rect x="215" y="47" width="2139" height="1369"/>
  </clipPath>
</defs>
<path clip-path="url(#clip140)" d="
M215.122 1415.33 L2352.76 1415.33 L2352.76 47.2441 L215.122 47.2441  Z
  " fill="#ffffff" fill-rule="evenodd" fill-opacity="1"/>
<polyline clip-path="url(#clip142)" style="stroke:#000000; stroke-width:2; stroke-opacity:0.1; fill:none" points="
  275.621,1415.33 275.621,47.2441 
  "/>
<polyline clip-path="url(#clip142)" style="stroke:#000000; stroke-width:2; stroke-opacity:0.1; fill:none" points="
  846.538,1415.33 846.538,47.2441 
  "/>
<polyline clip-path="url(#clip142)" style="stroke:#000000; stroke-width:2; stroke-opacity:0.1; fill:none" points="
  1417.46,1415.33 1417.46,47.2441 
  "/>
<polyline clip-path="url(#clip142)" style="stroke:#000000; stroke-width:2; stroke-opacity:0.1; fill:none" points="
  1988.37,1415.33 1988.37,47.2441 
  "/>
<polyline clip-path="url(#clip140)" style="stroke:#000000; stroke-width:4; stroke-opacity:1; fill:none" points="
  215.122,1415.33 2352.76,1415.33 
  "/>
<polyline clip-path="url(#clip140)" style="stroke:#000000; stroke-width:4; stroke-opacity:1; fill:none" points="
  275.621,1415.33 275.621,1398.91 
  "/>
<polyline clip-path="url(#clip140)" style="stroke:#000000; stroke-width:4; stroke-opacity:1; fill:none" points="
  846.538,1415.33 846.538,1398.91 
  "/>
<polyline clip-path="url(#clip140)" style="stroke:#000000; stroke-width:4; stroke-opacity:1; fill:none" points="
  1417.46,1415.33 1417.46,1398.91 
  "/>
<polyline clip-path="url(#clip140)" style="stroke:#000000; stroke-width:4; stroke-opacity:1; fill:none" points="
  1988.37,1415.33 1988.37,1398.91 
  "/>
<path clip-path="url(#clip140)" d="M 0 0 M257.137 1444.52 Q253.526 1444.52 251.697 1448.08 Q249.892 1451.62 249.892 1458.75 Q249.892 1465.86 251.697 1469.42 Q253.526 1472.97 257.137 1472.97 Q260.772 1472.97 262.577 1469.42 Q264.406 1465.86 264.406 1458.75 Q264.406 1451.62 262.577 1448.08 Q260.772 1444.52 257.137 1444.52 M257.137 1440.81 Q262.947 1440.81 266.003 1445.42 Q269.082 1450 269.082 1458.75 Q269.082 1467.48 266.003 1472.09 Q262.947 1476.67 257.137 1476.67 Q251.327 1476.67 248.248 1472.09 Q245.193 1467.48 245.193 1458.75 Q245.193 1450 248.248 1445.42 Q251.327 1440.81 257.137 1440.81 Z" fill="#000000" fill-rule="evenodd" fill-opacity="1" /><path clip-path="url(#clip140)" d="M 0 0 M274.151 1470.12 L279.035 1470.12 L279.035 1476 L274.151 1476 L274.151 1470.12 Z" fill="#000000" fill-rule="evenodd" fill-opacity="1" /><path clip-path="url(#clip140)" d="M 0 0 M294.105 1444.52 Q290.494 1444.52 288.665 1448.08 Q286.859 1451.62 286.859 1458.75 Q286.859 1465.86 288.665 1469.42 Q290.494 1472.97 294.105 1472.97 Q297.739 1472.97 299.544 1469.42 Q301.373 1465.86 301.373 1458.75 Q301.373 1451.62 299.544 1448.08 Q297.739 1444.52 294.105 1444.52 M294.105 1440.81 Q299.915 1440.81 302.97 1445.42 Q306.049 1450 306.049 1458.75 Q306.049 1467.48 302.97 1472.09 Q299.915 1476.67 294.105 1476.67 Q288.295 1476.67 285.216 1472.09 Q282.16 1467.48 282.16 1458.75 Q282.16 1450 285.216 1445.42 Q288.295 1440.81 294.105 1440.81 Z" fill="#000000" fill-rule="evenodd" fill-opacity="1" /><path clip-path="url(#clip140)" d="M 0 0 M828.552 1444.52 Q824.941 1444.52 823.112 1448.08 Q821.307 1451.62 821.307 1458.75 Q821.307 1465.86 823.112 1469.42 Q824.941 1472.97 828.552 1472.97 Q832.186 1472.97 833.992 1469.42 Q835.821 1465.86 835.821 1458.75 Q835.821 1451.62 833.992 1448.08 Q832.186 1444.52 828.552 1444.52 M828.552 1440.81 Q834.362 1440.81 837.418 1445.42 Q840.496 1450 840.496 1458.75 Q840.496 1467.48 837.418 1472.09 Q834.362 1476.67 828.552 1476.67 Q822.742 1476.67 819.663 1472.09 Q816.608 1467.48 816.608 1458.75 Q816.608 1450 819.663 1445.42 Q822.742 1440.81 828.552 1440.81 Z" fill="#000000" fill-rule="evenodd" fill-opacity="1" /><path clip-path="url(#clip140)" d="M 0 0 M845.566 1470.12 L850.45 1470.12 L850.45 1476 L845.566 1476 L845.566 1470.12 Z" fill="#000000" fill-rule="evenodd" fill-opacity="1" /><path clip-path="url(#clip140)" d="M 0 0 M855.566 1441.44 L873.922 1441.44 L873.922 1445.37 L859.848 1445.37 L859.848 1453.85 Q860.867 1453.5 861.885 1453.34 Q862.904 1453.15 863.922 1453.15 Q869.709 1453.15 873.089 1456.32 Q876.468 1459.49 876.468 1464.91 Q876.468 1470.49 872.996 1473.59 Q869.524 1476.67 863.205 1476.67 Q861.029 1476.67 858.76 1476.3 Q856.515 1475.93 854.107 1475.19 L854.107 1470.49 Q856.191 1471.62 858.413 1472.18 Q860.635 1472.73 863.112 1472.73 Q867.117 1472.73 869.455 1470.63 Q871.793 1468.52 871.793 1464.91 Q871.793 1461.3 869.455 1459.19 Q867.117 1457.09 863.112 1457.09 Q861.237 1457.09 859.362 1457.5 Q857.51 1457.92 855.566 1458.8 L855.566 1441.44 Z" fill="#000000" fill-rule="evenodd" fill-opacity="1" /><path clip-path="url(#clip140)" d="M 0 0 M1389.35 1472.06 L1396.99 1472.06 L1396.99 1445.7 L1388.68 1447.36 L1388.68 1443.11 L1396.95 1441.44 L1401.62 1441.44 L1401.62 1472.06 L1409.26 1472.06 L1409.26 1476 L1389.35 1476 L1389.35 1472.06 Z" fill="#000000" fill-rule="evenodd" fill-opacity="1" /><path clip-path="url(#clip140)" d="M 0 0 M1414.33 1470.12 L1419.21 1470.12 L1419.21 1476 L1414.33 1476 L1414.33 1470.12 Z" fill="#000000" fill-rule="evenodd" fill-opacity="1" /><path clip-path="url(#clip140)" d="M 0 0 M1434.28 1444.52 Q1430.67 1444.52 1428.84 1448.08 Q1427.04 1451.62 1427.04 1458.75 Q1427.04 1465.86 1428.84 1469.42 Q1430.67 1472.97 1434.28 1472.97 Q1437.92 1472.97 1439.72 1469.42 Q1441.55 1465.86 1441.55 1458.75 Q1441.55 1451.62 1439.72 1448.08 Q1437.92 1444.52 1434.28 1444.52 M1434.28 1440.81 Q1440.09 1440.81 1443.15 1445.42 Q1446.23 1450 1446.23 1458.75 Q1446.23 1467.48 1443.15 1472.09 Q1440.09 1476.67 1434.28 1476.67 Q1428.47 1476.67 1425.39 1472.09 Q1422.34 1467.48 1422.34 1458.75 Q1422.34 1450 1425.39 1445.42 Q1428.47 1440.81 1434.28 1440.81 Z" fill="#000000" fill-rule="evenodd" fill-opacity="1" /><path clip-path="url(#clip140)" d="M 0 0 M1960.77 1472.06 L1968.41 1472.06 L1968.41 1445.7 L1960.1 1447.36 L1960.1 1443.11 L1968.36 1441.44 L1973.04 1441.44 L1973.04 1472.06 L1980.68 1472.06 L1980.68 1476 L1960.77 1476 L1960.77 1472.06 Z" fill="#000000" fill-rule="evenodd" fill-opacity="1" /><path clip-path="url(#clip140)" d="M 0 0 M1985.75 1470.12 L1990.63 1470.12 L1990.63 1476 L1985.75 1476 L1985.75 1470.12 Z" fill="#000000" fill-rule="evenodd" fill-opacity="1" /><path clip-path="url(#clip140)" d="M 0 0 M1995.74 1441.44 L2014.1 1441.44 L2014.1 1445.37 L2000.03 1445.37 L2000.03 1453.85 Q2001.05 1453.5 2002.06 1453.34 Q2003.08 1453.15 2004.1 1453.15 Q2009.89 1453.15 2013.27 1456.32 Q2016.65 1459.49 2016.65 1464.91 Q2016.65 1470.49 2013.18 1473.59 Q2009.7 1476.67 2003.38 1476.67 Q2001.21 1476.67 1998.94 1476.3 Q1996.69 1475.93 1994.29 1475.19 L1994.29 1470.49 Q1996.37 1471.62 1998.59 1472.18 Q2000.81 1472.73 2003.29 1472.73 Q2007.3 1472.73 2009.63 1470.63 Q2011.97 1468.52 2011.97 1464.91 Q2011.97 1461.3 2009.63 1459.19 Q2007.3 1457.09 2003.29 1457.09 Q2001.42 1457.09 1999.54 1457.5 Q1997.69 1457.92 1995.74 1458.8 L1995.74 1441.44 Z" fill="#000000" fill-rule="evenodd" fill-opacity="1" /><path clip-path="url(#clip140)" d="M 0 0 M1235.92 1546.01 L1235.92 1484.59 Q1235.92 1482.14 1237.24 1482.14 Q1238.56 1482.14 1238.56 1484.11 L1238.56 1545.53 Q1238.56 1547.97 1237.24 1547.97 Q1235.92 1547.97 1235.92 1546.01 Z" fill="#000000" fill-rule="evenodd" fill-opacity="1" /><path clip-path="url(#clip140)" d="M 0 0 M1299.08 1493.67 Q1299.08 1494.51 1298.72 1496.12 Q1297.59 1500.66 1293.37 1503.79 Q1292.67 1504.37 1291.41 1505.11 Q1292.92 1506.11 1294.24 1507.94 Q1296.21 1510.97 1296.21 1515.06 Q1296.21 1516.96 1295.69 1519.28 Q1294.24 1524.66 1289.16 1528.52 Q1284.04 1532.29 1277.95 1532.29 Q1274.66 1532.29 1272.41 1530.55 Q1270.19 1528.78 1269.32 1525.82 L1264.84 1543.88 Q1264.74 1544.33 1264.16 1544.33 L1263.84 1544.33 Q1263.17 1544.33 1263.17 1543.56 L1273.34 1502.98 Q1274.02 1500.24 1275.11 1497.67 Q1276.21 1495.09 1277.72 1492.77 Q1279.27 1490.45 1281.04 1488.75 Q1282.81 1487.01 1285 1486.01 Q1287.19 1484.98 1289.51 1484.98 Q1294.37 1484.98 1297.14 1488.3 Q1299.08 1490.65 1299.08 1493.67 M1295.37 1492.51 Q1295.37 1490.52 1294.57 1489.13 Q1292.92 1486.49 1289.45 1486.49 Q1287.35 1486.49 1285.36 1487.46 Q1283.39 1488.39 1281.81 1490 Q1280.23 1491.61 1278.88 1493.8 Q1277.53 1495.99 1276.53 1498.38 Q1275.57 1500.73 1274.92 1503.3 L1270.96 1519.28 Q1270.57 1520.98 1270.57 1522.5 Q1270.57 1526.11 1272.57 1528.46 Q1274.57 1530.81 1278.01 1530.81 Q1282.59 1530.81 1286.52 1527.39 Q1289.93 1524.33 1291.35 1518.96 Q1292.15 1515.57 1292.15 1513.22 Q1292.15 1510.65 1291.22 1508.65 Q1290.54 1507.04 1289.22 1506.07 Q1286.77 1506.94 1284.29 1506.94 Q1283.1 1506.94 1282.46 1506.91 Q1281.85 1506.88 1280.94 1506.75 Q1280.07 1506.62 1279.66 1506.27 Q1279.27 1505.91 1279.27 1505.36 Q1279.27 1505.04 1279.33 1504.91 Q1279.46 1504.4 1279.88 1504.04 Q1280.3 1503.69 1280.78 1503.53 Q1281.27 1503.34 1282.07 1503.24 Q1282.91 1503.14 1283.46 1503.14 Q1284 1503.11 1284.94 1503.11 Q1287.13 1503.11 1289.35 1503.98 Q1290.19 1503.53 1291.09 1502.72 Q1293.95 1500.05 1294.92 1495.8 Q1295.37 1494.22 1295.37 1492.51 M1287.26 1504.98 Q1285.9 1504.62 1284.87 1504.62 Q1281.1 1504.62 1280.91 1505.24 Q1280.91 1505.3 1281.04 1505.36 Q1281.17 1505.4 1281.46 1505.43 Q1281.78 1505.43 1282.04 1505.46 Q1282.33 1505.49 1282.81 1505.49 Q1283.29 1505.49 1283.55 1505.49 Q1283.84 1505.49 1284.36 1505.49 Q1285.65 1505.49 1287.26 1504.98 Z" fill="#000000" fill-rule="evenodd" fill-opacity="1" /><path clip-path="url(#clip140)" d="M 0 0 M1300.16 1546.01 L1300.16 1484.59 Q1300.16 1482.14 1301.48 1482.14 Q1302.8 1482.14 1302.8 1484.11 L1302.8 1545.53 Q1302.8 1547.97 1301.48 1547.97 Q1300.16 1547.97 1300.16 1546.01 Z" fill="#000000" fill-rule="evenodd" fill-opacity="1" /><path clip-path="url(#clip140)" d="M 0 0 M1309.81 1539.57 L1309.81 1538.12 Q1315.36 1538.12 1318.22 1535.17 Q1319.01 1535.17 1319.15 1535.35 Q1319.28 1535.53 1319.28 1536.37 L1319.28 1562.27 Q1319.28 1563.64 1319.96 1564.07 Q1320.63 1564.5 1323.59 1564.5 L1325.05 1564.5 L1325.05 1565.92 Q1323.43 1565.79 1317.57 1565.79 Q1311.71 1565.79 1310.11 1565.92 L1310.11 1564.5 L1311.57 1564.5 Q1314.48 1564.5 1315.18 1564.09 Q1315.88 1563.67 1315.88 1562.27 L1315.88 1538.35 Q1313.46 1539.57 1309.81 1539.57 Z" fill="#000000" fill-rule="evenodd" fill-opacity="1" /><polyline clip-path="url(#clip142)" style="stroke:#000000; stroke-width:2; stroke-opacity:0.1; fill:none" points="
  215.122,1205.44 2352.76,1205.44 
  "/>
<polyline clip-path="url(#clip142)" style="stroke:#000000; stroke-width:2; stroke-opacity:0.1; fill:none" points="
  215.122,967.584 2352.76,967.584 
  "/>
<polyline clip-path="url(#clip142)" style="stroke:#000000; stroke-width:2; stroke-opacity:0.1; fill:none" points="
  215.122,729.726 2352.76,729.726 
  "/>
<polyline clip-path="url(#clip142)" style="stroke:#000000; stroke-width:2; stroke-opacity:0.1; fill:none" points="
  215.122,491.868 2352.76,491.868 
  "/>
<polyline clip-path="url(#clip142)" style="stroke:#000000; stroke-width:2; stroke-opacity:0.1; fill:none" points="
  215.122,254.01 2352.76,254.01 
  "/>
<polyline clip-path="url(#clip140)" style="stroke:#000000; stroke-width:4; stroke-opacity:1; fill:none" points="
  215.122,1415.33 215.122,47.2441 
  "/>
<polyline clip-path="url(#clip140)" style="stroke:#000000; stroke-width:4; stroke-opacity:1; fill:none" points="
  215.122,1205.44 240.773,1205.44 
  "/>
<polyline clip-path="url(#clip140)" style="stroke:#000000; stroke-width:4; stroke-opacity:1; fill:none" points="
  215.122,967.584 240.773,967.584 
  "/>
<polyline clip-path="url(#clip140)" style="stroke:#000000; stroke-width:4; stroke-opacity:1; fill:none" points="
  215.122,729.726 240.773,729.726 
  "/>
<polyline clip-path="url(#clip140)" style="stroke:#000000; stroke-width:4; stroke-opacity:1; fill:none" points="
  215.122,491.868 240.773,491.868 
  "/>
<polyline clip-path="url(#clip140)" style="stroke:#000000; stroke-width:4; stroke-opacity:1; fill:none" points="
  215.122,254.01 240.773,254.01 
  "/>
<path clip-path="url(#clip140)" d="M 0 0 M130.21 1191.24 Q126.599 1191.24 124.77 1194.81 Q122.965 1198.35 122.965 1205.48 Q122.965 1212.58 124.77 1216.15 Q126.599 1219.69 130.21 1219.69 Q133.844 1219.69 135.65 1216.15 Q137.479 1212.58 137.479 1205.48 Q137.479 1198.35 135.65 1194.81 Q133.844 1191.24 130.21 1191.24 M130.21 1187.54 Q136.02 1187.54 139.076 1192.14 Q142.154 1196.73 142.154 1205.48 Q142.154 1214.2 139.076 1218.81 Q136.02 1223.39 130.21 1223.39 Q124.4 1223.39 121.321 1218.81 Q118.266 1214.2 118.266 1205.48 Q118.266 1196.73 121.321 1192.14 Q124.4 1187.54 130.21 1187.54 Z" fill="#000000" fill-rule="evenodd" fill-opacity="1" /><path clip-path="url(#clip140)" d="M 0 0 M147.224 1216.84 L152.108 1216.84 L152.108 1222.72 L147.224 1222.72 L147.224 1216.84 Z" fill="#000000" fill-rule="evenodd" fill-opacity="1" /><path clip-path="url(#clip140)" d="M 0 0 M167.178 1191.24 Q163.566 1191.24 161.738 1194.81 Q159.932 1198.35 159.932 1205.48 Q159.932 1212.58 161.738 1216.15 Q163.566 1219.69 167.178 1219.69 Q170.812 1219.69 172.617 1216.15 Q174.446 1212.58 174.446 1205.48 Q174.446 1198.35 172.617 1194.81 Q170.812 1191.24 167.178 1191.24 M167.178 1187.54 Q172.988 1187.54 176.043 1192.14 Q179.122 1196.73 179.122 1205.48 Q179.122 1214.2 176.043 1218.81 Q172.988 1223.39 167.178 1223.39 Q161.367 1223.39 158.289 1218.81 Q155.233 1214.2 155.233 1205.48 Q155.233 1196.73 158.289 1192.14 Q161.367 1187.54 167.178 1187.54 Z" fill="#000000" fill-rule="evenodd" fill-opacity="1" /><path clip-path="url(#clip140)" d="M 0 0 M130.858 953.383 Q127.247 953.383 125.418 956.948 Q123.613 960.49 123.613 967.619 Q123.613 974.726 125.418 978.29 Q127.247 981.832 130.858 981.832 Q134.493 981.832 136.298 978.29 Q138.127 974.726 138.127 967.619 Q138.127 960.49 136.298 956.948 Q134.493 953.383 130.858 953.383 M130.858 949.679 Q136.668 949.679 139.724 954.286 Q142.803 958.869 142.803 967.619 Q142.803 976.346 139.724 980.952 Q136.668 985.536 130.858 985.536 Q125.048 985.536 121.969 980.952 Q118.914 976.346 118.914 967.619 Q118.914 958.869 121.969 954.286 Q125.048 949.679 130.858 949.679 Z" fill="#000000" fill-rule="evenodd" fill-opacity="1" /><path clip-path="url(#clip140)" d="M 0 0 M147.872 978.985 L152.756 978.985 L152.756 984.864 L147.872 984.864 L147.872 978.985 Z" fill="#000000" fill-rule="evenodd" fill-opacity="1" /><path clip-path="url(#clip140)" d="M 0 0 M171.992 966.23 Q175.349 966.948 177.224 969.216 Q179.122 971.485 179.122 974.818 Q179.122 979.934 175.603 982.735 Q172.085 985.536 165.603 985.536 Q163.428 985.536 161.113 985.096 Q158.821 984.679 156.367 983.823 L156.367 979.309 Q158.312 980.443 160.627 981.022 Q162.941 981.601 165.465 981.601 Q169.863 981.601 172.154 979.864 Q174.469 978.128 174.469 974.818 Q174.469 971.763 172.316 970.05 Q170.187 968.314 166.367 968.314 L162.34 968.314 L162.34 964.471 L166.553 964.471 Q170.002 964.471 171.83 963.105 Q173.659 961.716 173.659 959.124 Q173.659 956.462 171.761 955.05 Q169.886 953.615 166.367 953.615 Q164.446 953.615 162.247 954.031 Q160.048 954.448 157.409 955.328 L157.409 951.161 Q160.071 950.42 162.386 950.05 Q164.724 949.679 166.784 949.679 Q172.108 949.679 175.21 952.11 Q178.312 954.517 178.312 958.638 Q178.312 961.508 176.668 963.499 Q175.025 965.466 171.992 966.23 Z" fill="#000000" fill-rule="evenodd" fill-opacity="1" /><path clip-path="url(#clip140)" d="M 0 0 M130.048 715.525 Q126.437 715.525 124.608 719.09 Q122.803 722.631 122.803 729.761 Q122.803 736.867 124.608 740.432 Q126.437 743.974 130.048 743.974 Q133.682 743.974 135.488 740.432 Q137.317 736.867 137.317 729.761 Q137.317 722.631 135.488 719.09 Q133.682 715.525 130.048 715.525 M130.048 711.821 Q135.858 711.821 138.914 716.428 Q141.992 721.011 141.992 729.761 Q141.992 738.488 138.914 743.094 Q135.858 747.678 130.048 747.678 Q124.238 747.678 121.159 743.094 Q118.104 738.488 118.104 729.761 Q118.104 721.011 121.159 716.428 Q124.238 711.821 130.048 711.821 Z" fill="#000000" fill-rule="evenodd" fill-opacity="1" /><path clip-path="url(#clip140)" d="M 0 0 M147.062 741.127 L151.946 741.127 L151.946 747.006 L147.062 747.006 L147.062 741.127 Z" fill="#000000" fill-rule="evenodd" fill-opacity="1" /><path clip-path="url(#clip140)" d="M 0 0 M167.594 727.863 Q164.446 727.863 162.594 730.016 Q160.766 732.168 160.766 735.918 Q160.766 739.645 162.594 741.821 Q164.446 743.974 167.594 743.974 Q170.742 743.974 172.571 741.821 Q174.423 739.645 174.423 735.918 Q174.423 732.168 172.571 730.016 Q170.742 727.863 167.594 727.863 M176.877 713.21 L176.877 717.469 Q175.117 716.636 173.312 716.196 Q171.529 715.756 169.77 715.756 Q165.14 715.756 162.687 718.881 Q160.256 722.006 159.909 728.326 Q161.275 726.312 163.335 725.247 Q165.395 724.159 167.872 724.159 Q173.08 724.159 176.089 727.33 Q179.122 730.479 179.122 735.918 Q179.122 741.242 175.974 744.46 Q172.826 747.678 167.594 747.678 Q161.599 747.678 158.428 743.094 Q155.256 738.488 155.256 729.761 Q155.256 721.567 159.145 716.705 Q163.034 711.821 169.585 711.821 Q171.344 711.821 173.127 712.168 Q174.932 712.516 176.877 713.21 Z" fill="#000000" fill-rule="evenodd" fill-opacity="1" /><path clip-path="url(#clip140)" d="M 0 0 M130.395 477.667 Q126.784 477.667 124.956 481.232 Q123.15 484.773 123.15 491.903 Q123.15 499.009 124.956 502.574 Q126.784 506.116 130.395 506.116 Q134.03 506.116 135.835 502.574 Q137.664 499.009 137.664 491.903 Q137.664 484.773 135.835 481.232 Q134.03 477.667 130.395 477.667 M130.395 473.963 Q136.205 473.963 139.261 478.569 Q142.34 483.153 142.34 491.903 Q142.34 500.63 139.261 505.236 Q136.205 509.819 130.395 509.819 Q124.585 509.819 121.506 505.236 Q118.451 500.63 118.451 491.903 Q118.451 483.153 121.506 478.569 Q124.585 473.963 130.395 473.963 Z" fill="#000000" fill-rule="evenodd" fill-opacity="1" /><path clip-path="url(#clip140)" d="M 0 0 M147.409 503.268 L152.293 503.268 L152.293 509.148 L147.409 509.148 L147.409 503.268 Z" fill="#000000" fill-rule="evenodd" fill-opacity="1" /><path clip-path="url(#clip140)" d="M 0 0 M157.502 508.43 L157.502 504.171 Q159.261 505.005 161.066 505.444 Q162.872 505.884 164.608 505.884 Q169.238 505.884 171.668 502.782 Q174.122 499.657 174.469 493.315 Q173.127 495.306 171.066 496.37 Q169.006 497.435 166.506 497.435 Q161.321 497.435 158.289 494.31 Q155.279 491.162 155.279 485.722 Q155.279 480.398 158.428 477.181 Q161.576 473.963 166.807 473.963 Q172.802 473.963 175.951 478.569 Q179.122 483.153 179.122 491.903 Q179.122 500.074 175.233 504.958 Q171.367 509.819 164.816 509.819 Q163.057 509.819 161.252 509.472 Q159.446 509.125 157.502 508.43 M166.807 493.778 Q169.955 493.778 171.784 491.625 Q173.636 489.472 173.636 485.722 Q173.636 481.995 171.784 479.843 Q169.955 477.667 166.807 477.667 Q163.659 477.667 161.807 479.843 Q159.978 481.995 159.978 485.722 Q159.978 489.472 161.807 491.625 Q163.659 493.778 166.807 493.778 Z" fill="#000000" fill-rule="evenodd" fill-opacity="1" /><path clip-path="url(#clip140)" d="M 0 0 M123.844 267.355 L131.483 267.355 L131.483 240.989 L123.173 242.656 L123.173 238.397 L131.437 236.73 L136.113 236.73 L136.113 267.355 L143.752 267.355 L143.752 271.29 L123.844 271.29 L123.844 267.355 Z" fill="#000000" fill-rule="evenodd" fill-opacity="1" /><path clip-path="url(#clip140)" d="M 0 0 M148.821 265.41 L153.705 265.41 L153.705 271.29 L148.821 271.29 L148.821 265.41 Z" fill="#000000" fill-rule="evenodd" fill-opacity="1" /><path clip-path="url(#clip140)" d="M 0 0 M162.803 267.355 L179.122 267.355 L179.122 271.29 L157.178 271.29 L157.178 267.355 Q159.84 264.6 164.423 259.97 Q169.029 255.318 170.21 253.975 Q172.455 251.452 173.335 249.716 Q174.238 247.957 174.238 246.267 Q174.238 243.512 172.293 241.776 Q170.372 240.04 167.27 240.04 Q165.071 240.04 162.617 240.804 Q160.187 241.568 157.409 243.119 L157.409 238.397 Q160.233 237.262 162.687 236.684 Q165.14 236.105 167.178 236.105 Q172.548 236.105 175.742 238.79 Q178.937 241.475 178.937 245.966 Q178.937 248.096 178.127 250.017 Q177.339 251.915 175.233 254.508 Q174.654 255.179 171.552 258.396 Q168.451 261.591 162.803 267.355 Z" fill="#000000" fill-rule="evenodd" fill-opacity="1" /><path clip-path="url(#clip140)" d="M 0 0 M44.7794 726.248 Q45.6168 726.248 47.2271 726.602 Q51.7681 727.729 54.8921 731.948 Q55.4718 732.657 56.2125 733.913 Q57.2109 732.399 59.0466 731.079 Q62.074 729.114 66.1641 729.114 Q68.0643 729.114 70.3831 729.63 Q75.7615 731.079 79.6262 736.167 Q83.3943 741.288 83.3943 747.375 Q83.3943 750.66 81.6552 752.914 Q79.8838 755.137 76.9209 756.006 L94.9884 760.483 Q95.4393 760.579 95.4393 761.159 L95.4393 761.481 Q95.4393 762.157 94.6663 762.157 L54.0869 751.98 Q51.3494 751.304 48.773 750.209 Q46.1965 749.114 43.8777 747.6 Q41.5589 746.055 39.852 744.283 Q38.1128 742.512 37.1145 740.322 Q36.0839 738.132 36.0839 735.813 Q36.0839 730.95 39.4011 728.18 Q41.7521 726.248 44.7794 726.248 M43.62 729.952 Q41.6233 729.952 40.2384 730.757 Q37.5975 732.399 37.5975 735.877 Q37.5975 737.971 38.5637 739.968 Q39.4977 741.932 41.108 743.51 Q42.7183 745.088 44.9083 746.441 Q47.0983 747.794 49.4815 748.792 Q51.8325 749.758 54.409 750.402 L70.3831 754.364 Q72.09 754.75 73.6037 754.75 Q77.2108 754.75 79.5618 752.753 Q81.9128 750.757 81.9128 747.311 Q81.9128 742.737 78.499 738.808 Q75.4394 735.394 70.0611 733.977 Q66.6794 733.172 64.3284 733.172 Q61.7519 733.172 59.7552 734.106 Q58.1449 734.782 57.1787 736.103 Q58.0483 738.551 58.0483 741.03 Q58.0483 742.222 58.0161 742.866 Q57.9839 743.478 57.855 744.38 Q57.7262 745.249 57.3719 745.668 Q57.0177 746.055 56.4702 746.055 Q56.1481 746.055 56.0193 745.99 Q55.504 745.861 55.1497 745.443 Q54.7955 745.024 54.6344 744.541 Q54.4412 744.058 54.3446 743.253 Q54.248 742.415 54.248 741.868 Q54.2158 741.32 54.2158 740.386 Q54.2158 738.196 55.0853 735.974 Q54.6344 735.137 53.8293 734.235 Q51.1562 731.369 46.905 730.402 Q45.3269 729.952 43.62 729.952 M56.0837 738.067 Q55.7294 739.42 55.7294 740.451 Q55.7294 744.219 56.3414 744.412 Q56.4058 744.412 56.4702 744.283 Q56.5024 744.154 56.5346 743.865 Q56.5346 743.542 56.5668 743.285 Q56.599 742.995 56.599 742.512 Q56.599 742.029 56.599 741.771 Q56.599 741.481 56.599 740.966 Q56.599 739.678 56.0837 738.067 Z" fill="#000000" fill-rule="evenodd" fill-opacity="1" /><path clip-path="url(#clip140)" d="M 0 0 M84.4377 707.749 Q85.4297 707.749 86.1736 708.56 Q86.895 709.349 86.895 710.206 Q86.895 710.995 86.4216 711.491 Q85.9256 711.964 85.2268 711.964 Q84.3025 711.964 83.536 711.175 Q82.7695 710.386 82.7695 709.462 Q82.7695 708.696 83.2429 708.222 Q83.7163 707.749 84.4377 707.749 M106.689 707.343 Q106.869 707.343 107.591 707.546 Q108.289 707.749 109.371 708.245 Q110.431 708.718 111.423 709.372 Q112.415 710.026 113.114 711.108 Q113.813 712.167 113.813 713.385 Q113.813 715.03 112.731 716.113 Q111.648 717.172 110.025 717.172 Q109.146 717.172 106.328 716.113 Q98.122 713.047 97.7838 712.934 Q96.4988 712.415 95.3716 712.415 Q94.8531 712.415 94.5375 712.528 Q94.1993 712.641 94.0866 712.866 Q93.9513 713.092 93.9288 713.227 Q93.9062 713.34 93.9062 713.565 Q93.9062 714.895 95.2589 716.135 Q96.6115 717.375 99.6324 718.232 Q100.196 718.412 100.331 718.525 Q100.467 718.638 100.467 718.976 Q100.444 719.539 99.9931 719.539 Q99.8579 719.539 99.3394 719.382 Q98.7983 719.224 97.9867 718.931 Q97.1526 718.638 96.2959 718.119 Q95.4167 717.601 94.6502 716.969 Q93.8837 716.316 93.3877 715.391 Q92.8918 714.467 92.8918 713.43 Q92.8918 711.739 93.9964 710.702 Q95.0785 709.642 96.6792 709.642 Q97.5584 709.642 99.1139 710.251 Q101.143 710.995 101.797 711.266 L106.644 713.069 Q108.402 713.723 108.943 713.926 Q109.462 714.106 110.093 714.264 Q110.702 714.399 111.265 714.399 Q112.054 714.399 112.415 714.151 Q112.776 713.881 112.776 713.295 Q112.776 711.671 111.175 710.477 Q109.552 709.282 107.072 708.583 Q107.004 708.56 106.892 708.538 Q106.328 708.357 106.26 708.177 Q106.238 708.087 106.238 707.907 Q106.238 707.343 106.689 707.343 Z" fill="#000000" fill-rule="evenodd" fill-opacity="1" /><polyline clip-path="url(#clip142)" style="stroke:#009af9; stroke-width:4; stroke-opacity:1; fill:none" points="
  275.621,1205.44 381.244,1132.1 477.484,1065.27 565.175,1004.38 645.075,948.903 717.877,898.351 784.212,852.29 844.653,810.321 899.725,772.08 949.905,737.237 
  995.627,705.489 1037.29,676.561 1075.25,650.203 1109.83,626.187 1141.35,604.304 1170.06,584.366 1196.23,566.198 1220.06,549.645 1241.79,534.562 1261.58,520.819 
  1279.61,508.297 1296.04,496.887 1311.02,486.491 1324.66,477.019 1337.09,468.388 1348.41,460.523 1358.73,453.358 1368.13,446.829 1376.7,440.88 1384.51,435.459 
  1391.62,430.52 1398.1,426.02 1404.01,421.92 1409.39,418.183 1414.29,414.779 1418.76,411.677 1422.83,408.851 1426.54,406.276 1429.92,403.929 1433,401.792 
  1435.8,399.843 1447.48,394.889 1471.54,385.565 1493.59,377.02 1513.68,369.232 1531.98,362.137 1548.37,355.793 1563.58,349.897 1577.45,344.519 1590.09,339.619 
  1601.31,335.279 1611.81,331.209 1621.4,327.491 1630.14,324.104 1638.1,321.017 1645.07,318.323 1651.67,315.762 1657.72,313.417 1663.23,311.28 1667.95,309.456 
  1672.51,307.689 1676.7,306.064 1680.52,304.58 1690.98,300.791 1745.62,281.258 1793.88,264.036 1837.98,248.301 1877.43,234.219 1913.69,221.279 1946.81,209.463 
  1976.94,198.708 2005.06,188.677 2041.55,175.679 2075.46,163.511 2100.73,154.498 2130.64,143.766 2151.79,136.227 2173.22,128.562 2194.16,121.066 2211.79,114.758 
  2227.9,108.994 2243.74,103.323 2257.82,98.2869 2270.31,93.8185 2281.34,89.8691 2292.26,85.9634 
  "/>
<polyline clip-path="url(#clip142)" style="stroke:#e26f46; stroke-width:4; stroke-opacity:1; fill:none" points="
  275.621,1205.44 381.244,1205.44 477.484,1205.44 565.175,1205.44 645.075,1205.44 717.877,1205.44 784.212,1205.44 844.653,1205.44 899.725,1205.44 949.905,1205.44 
  995.627,1205.44 1037.29,1205.44 1075.25,1205.44 1109.83,1205.44 1141.35,1205.44 1170.06,1205.44 1196.23,1205.44 1220.06,1205.44 1241.79,1205.44 1261.58,1205.44 
  1279.61,1205.44 1296.04,1205.44 1311.02,1205.44 1324.66,1205.44 1337.09,1205.44 1348.41,1205.44 1358.73,1205.44 1368.13,1205.44 1376.7,1205.44 1384.51,1205.44 
  1391.62,1205.44 1398.1,1205.44 1404.01,1205.44 1409.39,1205.44 1414.29,1205.44 1418.76,1205.44 1422.83,1205.44 1426.54,1205.44 1429.92,1205.44 1433,1205.44 
  1435.8,1205.44 1447.48,1205.44 1471.54,1205.44 1493.59,1205.44 1513.68,1205.44 1531.98,1205.44 1548.37,1205.44 1563.58,1205.44 1577.45,1205.44 1590.09,1205.44 
  1601.31,1205.44 1611.81,1205.44 1621.4,1205.44 1630.14,1205.44 1638.1,1205.44 1645.07,1205.44 1651.67,1205.44 1657.72,1205.44 1663.23,1205.44 1667.95,1205.44 
  1672.51,1205.44 1676.7,1205.44 1680.52,1205.44 1690.98,1207.94 1745.62,1224.68 1793.88,1239.6 1837.98,1253.24 1877.43,1265.44 1913.69,1276.65 1946.81,1286.89 
  1976.94,1296.21 2005.06,1304.91 2041.55,1315.08 2075.46,1323.31 2100.73,1329.54 2130.64,1336.88 2151.79,1342.09 2173.22,1347.36 2194.16,1352.5 2211.79,1356.84 
  2227.9,1360.8 2243.74,1364.69 2257.82,1368.15 2270.31,1371.21 2281.34,1373.93 2292.26,1376.61 
  "/>
<polyline clip-path="url(#clip142)" style="stroke:#3da44d; stroke-width:4; stroke-opacity:1; fill:none" points="
  275.621,1205.44 381.244,1205.44 477.484,1205.44 565.175,1205.44 645.075,1205.44 717.877,1205.44 784.212,1205.44 844.653,1205.44 899.725,1205.44 949.905,1205.44 
  995.627,1205.44 1037.29,1205.44 1075.25,1205.44 1109.83,1205.44 1141.35,1205.44 1170.06,1205.44 1196.23,1205.44 1220.06,1205.44 1241.79,1205.44 1261.58,1205.44 
  1279.61,1205.44 1296.04,1205.44 1311.02,1205.44 1324.66,1205.44 1337.09,1205.44 1348.41,1205.44 1358.73,1205.44 1368.13,1205.44 1376.7,1205.44 1384.51,1205.44 
  1391.62,1205.44 1398.1,1205.44 1404.01,1205.44 1409.39,1205.44 1414.29,1205.44 1418.76,1205.44 1422.83,1205.44 1426.54,1205.44 1429.92,1205.44 1433,1205.44 
  1435.8,1205.44 1447.48,1205.44 1471.54,1205.44 1493.59,1205.44 1513.68,1205.44 1531.98,1205.44 1548.37,1205.44 1563.58,1205.44 1577.45,1205.44 1590.09,1205.44 
  1601.31,1205.44 1611.81,1205.44 1621.4,1205.44 1630.14,1205.44 1638.1,1205.44 1645.07,1205.44 1651.67,1205.44 1657.72,1205.44 1663.23,1205.44 1667.95,1205.44 
  1672.51,1205.44 1676.7,1205.44 1680.52,1205.44 1690.98,1205.44 1745.62,1205.44 1793.88,1205.44 1837.98,1205.44 1877.43,1205.44 1913.69,1205.44 1946.81,1205.44 
  1976.94,1205.44 2005.06,1205.44 2041.55,1206.99 2075.46,1209.28 2100.73,1211.17 2130.64,1213.12 2151.79,1214.73 2173.22,1216.22 2194.16,1217.69 2211.79,1218.91 
  2227.9,1220.03 2243.74,1221.14 2257.82,1222.12 2270.31,1222.99 2281.34,1223.76 2292.26,1224.52 
  "/>
<polyline clip-path="url(#clip142)" style="stroke:#c271d2; stroke-width:4; stroke-opacity:1; fill:none" points="
  275.621,1205.44 381.244,1205.44 477.484,1205.44 565.175,1205.44 645.075,1205.44 717.877,1205.44 784.212,1205.44 844.653,1205.44 899.725,1205.44 949.905,1205.44 
  995.627,1205.44 1037.29,1205.44 1075.25,1205.44 1109.83,1205.44 1141.35,1205.44 1170.06,1205.44 1196.23,1205.44 1220.06,1205.44 1241.79,1205.44 1261.58,1205.44 
  1279.61,1205.44 1296.04,1205.44 1311.02,1205.44 1324.66,1205.44 1337.09,1205.44 1348.41,1205.44 1358.73,1205.44 1368.13,1205.44 1376.7,1205.44 1384.51,1205.44 
  1391.62,1205.44 1398.1,1205.44 1404.01,1205.44 1409.39,1205.44 1414.29,1205.44 1418.76,1205.44 1422.83,1205.44 1426.54,1205.44 1429.92,1205.44 1433,1205.44 
  1435.8,1205.44 1447.48,1208.6 1471.54,1215.98 1493.59,1222.75 1513.68,1228.91 1531.98,1234.52 1548.37,1239.56 1563.58,1244.23 1577.45,1248.48 1590.09,1252.36 
  1601.31,1255.81 1611.81,1259.03 1621.4,1261.97 1630.14,1264.64 1638.1,1267.08 1645.07,1269.23 1651.67,1271.26 1657.72,1273.11 1663.23,1274.8 1667.95,1276.26 
  1672.51,1277.65 1676.7,1278.94 1680.52,1280.11 1690.98,1281.08 1745.62,1282.75 1793.88,1284.12 1837.98,1285.36 1877.43,1286.48 1913.69,1287.51 1946.81,1288.45 
  1976.94,1289.3 2005.06,1290.09 2041.55,1290.72 2075.46,1291.56 2100.73,1291.98 2130.64,1292.73 2151.79,1293.06 2173.22,1293.51 2194.16,1293.95 2211.79,1294.32 
  2227.9,1294.67 2243.74,1295 2257.82,1295.29 2270.31,1295.56 2281.34,1295.79 2292.26,1296.02 
  "/>
<path clip-path="url(#clip140)" d="
M286.376 455.727 L755.667 455.727 L755.667 92.8468 L286.376 92.8468  Z
  " fill="#ffffff" fill-rule="evenodd" fill-opacity="1"/>
<polyline clip-path="url(#clip140)" style="stroke:#000000; stroke-width:4; stroke-opacity:1; fill:none" points="
  286.376,455.727 755.667,455.727 755.667,92.8468 286.376,92.8468 286.376,455.727 
  "/>
<path clip-path="url(#clip140)" d="M 0 0 M422.531 177.087 L404.388 129.567 L411.104 129.567 L426.159 169.575 L441.246 129.567 L447.93 129.567 L429.819 177.087 L422.531 177.087 Z" fill="#000000" fill-rule="evenodd" fill-opacity="1" /><path clip-path="url(#clip140)" d="M 0 0 M465.213 159.167 Q458.115 159.167 455.378 160.791 Q452.64 162.414 452.64 166.329 Q452.64 169.448 454.677 171.294 Q456.746 173.108 460.279 173.108 Q465.149 173.108 468.077 169.671 Q471.037 166.201 471.037 160.472 L471.037 159.167 L465.213 159.167 M476.894 156.748 L476.894 177.087 L471.037 177.087 L471.037 171.676 Q469.032 174.923 466.04 176.482 Q463.048 178.01 458.72 178.01 Q453.245 178.01 449.999 174.954 Q446.784 171.867 446.784 166.711 Q446.784 160.695 450.794 157.64 Q454.836 154.584 462.825 154.584 L471.037 154.584 L471.037 154.011 Q471.037 149.969 468.364 147.773 Q465.722 145.545 460.916 145.545 Q457.86 145.545 454.964 146.277 Q452.067 147.009 449.394 148.473 L449.394 143.062 Q452.608 141.821 455.632 141.216 Q458.656 140.58 461.52 140.58 Q469.255 140.58 473.074 144.59 Q476.894 148.6 476.894 156.748 Z" fill="#000000" fill-rule="evenodd" fill-opacity="1" /><path clip-path="url(#clip140)" d="M 0 0 M503.693 146.913 Q502.707 146.34 501.529 146.086 Q500.383 145.799 498.983 145.799 Q494.017 145.799 491.344 149.046 Q488.702 152.261 488.702 158.308 L488.702 177.087 L482.814 177.087 L482.814 141.439 L488.702 141.439 L488.702 146.977 Q490.548 143.731 493.508 142.171 Q496.468 140.58 500.701 140.58 Q501.306 140.58 502.038 140.675 Q502.77 140.739 503.661 140.898 L503.693 146.913 Z" fill="#000000" fill-rule="evenodd" fill-opacity="1" /><path clip-path="url(#clip140)" d="M 0 0 M509.836 141.439 L515.693 141.439 L515.693 177.087 L509.836 177.087 L509.836 141.439 M509.836 127.562 L515.693 127.562 L515.693 134.978 L509.836 134.978 L509.836 127.562 Z" fill="#000000" fill-rule="evenodd" fill-opacity="1" /><path clip-path="url(#clip140)" d="M 0 0 M538.036 159.167 Q530.939 159.167 528.201 160.791 Q525.464 162.414 525.464 166.329 Q525.464 169.448 527.501 171.294 Q529.57 173.108 533.103 173.108 Q537.973 173.108 540.901 169.671 Q543.861 166.201 543.861 160.472 L543.861 159.167 L538.036 159.167 M549.717 156.748 L549.717 177.087 L543.861 177.087 L543.861 171.676 Q541.856 174.923 538.864 176.482 Q535.872 178.01 531.543 178.01 Q526.069 178.01 522.822 174.954 Q519.608 171.867 519.608 166.711 Q519.608 160.695 523.618 157.64 Q527.66 154.584 535.649 154.584 L543.861 154.584 L543.861 154.011 Q543.861 149.969 541.187 147.773 Q538.546 145.545 533.739 145.545 Q530.684 145.545 527.787 146.277 Q524.891 147.009 522.218 148.473 L522.218 143.062 Q525.432 141.821 528.456 141.216 Q531.48 140.58 534.344 140.58 Q542.079 140.58 545.898 144.59 Q549.717 148.6 549.717 156.748 Z" fill="#000000" fill-rule="evenodd" fill-opacity="1" /><path clip-path="url(#clip140)" d="M 0 0 M581.45 159.295 Q581.45 152.834 578.777 149.173 Q576.135 145.481 571.488 145.481 Q566.841 145.481 564.168 149.173 Q561.526 152.834 561.526 159.295 Q561.526 165.756 564.168 169.448 Q566.841 173.108 571.488 173.108 Q576.135 173.108 578.777 169.448 Q581.45 165.756 581.45 159.295 M561.526 146.85 Q563.372 143.667 566.173 142.139 Q569.005 140.58 572.92 140.58 Q579.413 140.58 583.456 145.736 Q587.53 150.892 587.53 159.295 Q587.53 167.697 583.456 172.854 Q579.413 178.01 572.92 178.01 Q569.005 178.01 566.173 176.482 Q563.372 174.923 561.526 171.74 L561.526 177.087 L555.637 177.087 L555.637 127.562 L561.526 127.562 L561.526 146.85 Z" fill="#000000" fill-rule="evenodd" fill-opacity="1" /><path clip-path="url(#clip140)" d="M 0 0 M593.673 127.562 L599.529 127.562 L599.529 177.087 L593.673 177.087 L593.673 127.562 Z" fill="#000000" fill-rule="evenodd" fill-opacity="1" /><path clip-path="url(#clip140)" d="M 0 0 M636.164 157.799 L636.164 160.663 L609.237 160.663 Q609.619 166.711 612.865 169.894 Q616.144 173.045 621.968 173.045 Q625.342 173.045 628.493 172.217 Q631.676 171.39 634.795 169.734 L634.795 175.273 Q631.644 176.609 628.334 177.31 Q625.024 178.01 621.618 178.01 Q613.088 178.01 608.091 173.045 Q603.126 168.079 603.126 159.613 Q603.126 150.86 607.836 145.736 Q612.579 140.58 620.599 140.58 Q627.793 140.58 631.962 145.226 Q636.164 149.842 636.164 157.799 M630.307 156.08 Q630.244 151.274 627.602 148.409 Q624.992 145.545 620.663 145.545 Q615.762 145.545 612.802 148.314 Q609.873 151.083 609.428 156.112 L630.307 156.08 Z" fill="#000000" fill-rule="evenodd" fill-opacity="1" /><polyline clip-path="url(#clip140)" style="stroke:#009af9; stroke-width:4; stroke-opacity:1; fill:none" points="
  310.128,213.807 452.637,213.807 
  "/>
<path clip-path="url(#clip140)" d="M 0 0 M477.06 227.152 L484.698 227.152 L484.698 200.786 L476.388 202.453 L476.388 198.194 L484.652 196.527 L489.328 196.527 L489.328 227.152 L496.967 227.152 L496.967 231.087 L477.06 231.087 L477.06 227.152 Z" fill="#000000" fill-rule="evenodd" fill-opacity="1" /><polyline clip-path="url(#clip140)" style="stroke:#e26f46; stroke-width:4; stroke-opacity:1; fill:none" points="
  310.128,274.287 452.637,274.287 
  "/>
<path clip-path="url(#clip140)" d="M 0 0 M482.013 287.632 L498.333 287.632 L498.333 291.567 L476.388 291.567 L476.388 287.632 Q479.05 284.877 483.634 280.247 Q488.24 275.595 489.421 274.252 Q491.666 271.729 492.546 269.993 Q493.448 268.234 493.448 266.544 Q493.448 263.789 491.504 262.053 Q489.583 260.317 486.481 260.317 Q484.282 260.317 481.828 261.081 Q479.398 261.845 476.62 263.396 L476.62 258.674 Q479.444 257.539 481.898 256.961 Q484.351 256.382 486.388 256.382 Q491.759 256.382 494.953 259.067 Q498.147 261.752 498.147 266.243 Q498.147 268.373 497.337 270.294 Q496.55 272.192 494.444 274.785 Q493.865 275.456 490.763 278.673 Q487.661 281.868 482.013 287.632 Z" fill="#000000" fill-rule="evenodd" fill-opacity="1" /><polyline clip-path="url(#clip140)" style="stroke:#3da44d; stroke-width:4; stroke-opacity:1; fill:none" points="
  310.128,334.767 452.637,334.767 
  "/>
<path clip-path="url(#clip140)" d="M 0 0 M492.013 333.413 Q495.37 334.13 497.245 336.399 Q499.143 338.667 499.143 342.001 Q499.143 347.116 495.624 349.917 Q492.106 352.718 485.624 352.718 Q483.448 352.718 481.134 352.278 Q478.842 351.862 476.388 351.005 L476.388 346.491 Q478.333 347.626 480.648 348.204 Q482.962 348.783 485.485 348.783 Q489.884 348.783 492.175 347.047 Q494.49 345.311 494.49 342.001 Q494.49 338.945 492.337 337.232 Q490.208 335.496 486.388 335.496 L482.36 335.496 L482.36 331.653 L486.573 331.653 Q490.022 331.653 491.851 330.288 Q493.68 328.899 493.68 326.306 Q493.68 323.644 491.782 322.232 Q489.907 320.797 486.388 320.797 Q484.467 320.797 482.268 321.214 Q480.069 321.63 477.43 322.51 L477.43 318.343 Q480.092 317.603 482.407 317.232 Q484.745 316.862 486.805 316.862 Q492.129 316.862 495.231 319.292 Q498.333 321.7 498.333 325.82 Q498.333 328.69 496.689 330.681 Q495.046 332.649 492.013 333.413 Z" fill="#000000" fill-rule="evenodd" fill-opacity="1" /><polyline clip-path="url(#clip140)" style="stroke:#c271d2; stroke-width:4; stroke-opacity:1; fill:none" points="
  310.128,395.247 452.637,395.247 
  "/>
<path clip-path="url(#clip140)" d="M 0 0 M491.99 382.041 L480.185 400.49 L491.99 400.49 L491.99 382.041 M490.763 377.967 L496.643 377.967 L496.643 400.49 L501.573 400.49 L501.573 404.379 L496.643 404.379 L496.643 412.527 L491.99 412.527 L491.99 404.379 L476.388 404.379 L476.388 399.865 L490.763 377.967 Z" fill="#000000" fill-rule="evenodd" fill-opacity="1" /></svg>
